<?xml version="1.0" encoding="utf-8"?>

<!DOCTYPE svg PUBLIC "-//W3C//DTD SVG 1.1//EN" "http://www.w3.org/Graphics/SVG/1.1/DTD/svg11.dtd">
<svg version="1.1" id="Layer_1" xmlns="http://www.w3.org/2000/svg" xmlns:xlink="http://www.w3.org/1999/xlink" x="0px" y="0px"
	 viewBox="0 0 1644.732 1668.321" enable-background="new 0 0 1644.732 1668.321" xml:space="preserve">
<path d="M1569.032,966.12c-3.803,3.891-3.883,3.496-2.581-4.29c1.237-7.467,6.399-17.026,12.922-17.641
	c3.546-0.327,4.609-4.115,1.673-5.938c-0.833-0.518-2.191-2.43-3.018-4.239c-2.492-5.49-6.328-5.688-1.67-6.717
	c6.896-1.516,8.29-13.996,1.817-18.709c-7.063-5.194,1.573-20.582-0.871-97.939c-1.567-47.537-3.775-47.497,0.871-50.913
	c6.469-4.71,5.086-17.191-1.817-18.709c-4.658-1.029-0.822-1.227,1.67-6.717c0.827-1.81,2.185-3.721,3.018-4.239
	c2.936-1.823,1.873-5.611-1.673-5.938c-6.494-0.612-11.674-10.112-12.922-17.641c-1.306-7.811-1.207-8.165,2.581-4.29
	c14.39,14.606,37.161,5.592,41.403-10.684c3.734-15.045-9.903-31.895-27.507-23.956c-8.512,3.827-12.518,11.913-7.806,20.26
	c5.023,8.89,18.477,6.568,18.422-3.586c-0.021-3.658-2.912-6.564-5.932-7.654c-8.181-2.891-7.687,7.763-5.541,7.343
	c0.534-0.105,0.914-0.48,0.847-0.833c-0.179-0.934,3.532-1.522,4.078-0.638c2.196,3.559-0.964,7.38-4.791,5.812
	c-3.906-1.589-6.53-14.176,5.459-16.319c15.468-2.784,22.886,16.555,12.211,26.555c-8.27,7.871-30.9,11.872-39.319-22.773
	c-2.204-9.07-1.885-9.492,0.116-10.63c4.996-2.803,2.215-14.93-3.413-15.527c-2.023-0.208-2.042-0.342-3.922-5.803
	c-5.139-14.451,1.087-0.161,15.552,0.222c14.744,0.37,28.414-12.185,24.13-27.562c-5.749-19.402-33.209-19.523-34.222-1.048
	c-0.303,5.584,3.073,10.008,7.483,11.539c8.02,2.808,16.125-5.222,10.863-13.246c-4.518-6.903-12.454-1.521-6.441,1.505
	c2.376,1.194,2.573,2.781,3.317,5.304c-7.55,1.725-7.197,2.029-8.629-0.398c-3.036-5.14-0.51-9.725,3.77-11.911
	c10.799-5.494,20.84,7.052,18.972,17.032c-2.419,12.92-22.612,19.013-34.886,5.095c-7.888-9.219-20.704-48.967-19.748-60.819
	c1.763-18.475,21.683-25.407,31.227-16.371c7.309,6.929,6.726,23.014-5.348,24.929c-4.748,0.746-9.485-1.481-10.047-7.424
	c-0.269-2.807-0.366-2.355,6.746-5.39c0.945,2.499,1.617,3.955,0.434,6.24c-1.586,3.072-0.441,4.604,2.778,3.736
	c4.787-1.293,4.304-11.069-0.708-13.628c-7.51-3.906-14.585,2.004-14.51,9.529c0.077,8.952,11.948,17.63,23.086,9.306
	c15.604-11.63,7.041-38.785-15.961-36.361c-26.781,2.82-19.957,33.44-25.53,14.481c-1.7-5.519-1.751-5.643-0.239-6.998
	c2.111-1.902,1.937-5.702,0.531-8.957c-3.234-7.488-7.505-4.919-9.077-5.91c-1.04-0.638-11.044-20.547-8.751-31.768
	c4.294-22.062,33.258-24.589,36.885-4.295c2.465,13.345-16.533,22.766-21.554,10.782c-1.66-4.027-1.664-4.067-0.57-5.823
	c2.179-3.519,6.976-2.28,7.284,1.892c0.076,1.037-3.273,2.741-3.675,1.879c-0.467-1-3.642-0.229,0.465,3.972
	c4.836,4.969,11.746-5.155,7.468-11.141c-5.905-8.257-18.157-2.232-17.015,7.92c2.455,20.665,35.552,13.26,34.13-7.762
	c-1.986-28.581-43.319-27.748-47.518-0.291c-0.815,5.314-1.039,5.207-4.6-1.96c-3.157-6.28-5.051-17.337,0.095-21.867
	c2.68-2.349,1.326-6.045-2.117-5.798c-0.979,0.07-3.191-0.684-4.924-1.662c-5.346-2.92-8.483-0.889-5.335-4.434
	c2.965-3.334,1.612-8.822-1.714-12.49c-8.18-8.705-7.34,2.979-16.742-11.532c-6.794-10.487-23.572-36.4-32.145-47.694
	c-44.898-60.91-48.61-58.18-46.511-64.848c2.436-7.799-6.016-16.893-12.484-14.051c-4.33,1.898-1.439-0.42-2.583-6.434
	c-0.36-1.984-0.423-4.296-0.048-5.212c1.295-3.198-1.807-5.621-4.869-3.794c-4.971,2.932-14.031-0.127-20.831-6.649
	c-5.725-5.591-5.758-5.837-0.448-4.977c20.13,3.268,33.341-17.143,27.19-33.015c-5.852-14.813-26.92-19.603-36.318-3.181
	c-4.593,8.034-3.141,17.053,5.604,20.972c9.309,4.212,18.818-5.585,12.784-13.74c-4.378-5.906-16.137-2.461-12.905,3.671
	c1.396,2.658,2.649,3.689,3.443,2.835c0.37-0.399,0.456-0.925,0.193-1.17c-0.696-0.648,1.959-3.307,2.922-2.916
	c3.875,1.577,3.574,6.519-0.446,7.508c-4.102,1.02-13.626-7.58-5.181-16.407c10.719-11.165,28.144-0.437,25.474,14.293
	c-1.648,9.062-10.928,18.046-24.218,16.36c-11.136-1.283-27.184-16.79-27.516-18.127c-0.117-0.46,0.059-1.435,0.39-2.167
	c2.389-5.277-7.006-13.372-11.885-10.556c-1.756,1.018-1.86,0.934-6.581-2.392c-10.737-7.356-2.477-3.064,6.227-5.803
	c11.89-3.679,19.315-16.422,17.218-27.548c-2.67-14.187-19.566-21.237-31.395-12.873c-11.283,7.956-6.88,21.96,1.689,24.836
	c7.194,2.388,14.937-2.534,13.555-10.853c-0.875-5.526-10.015-9.051-12.734-4.889c-1.824,2.792-0.722,4.356,2.688,3.8
	c2.617-0.429,3.703,0.731,5.799,2.341c-5.093,5.831-4.629,5.875-7.216,4.75c-10.894-4.729-2.75-20.935,9.425-17.976
	c29.4,6.926,6.986,59.645-40.849,16.975c-52.898-31.126-15.633-65.835,0.915-47.715c12.035,13.325-3.499,27.253-11.523,18.109
	c-1.858-2.11-1.715-1.633,2.284-8.301c2.135,1.407,3.627,2.126,4.025,4.777c1.278,8.458,10.958-3.009,0.023-8.463
	c-11.81-5.725-19.066,15.663-3.911,19.721c13.239,3.55,21.515-10.04,17.659-22.158c-6.246-19.637-34.954-18.919-41.729,3.702
	c-4.137,13.794,7.564,24.239-4.602,14.826c-4.644-3.426-4.732-3.537-4.311-5.51c1.196-5.559-9.473-11.958-13.703-8.057
	c-2.998,2.724-30.653-12.241-30.153-28.912c0.396-13.264,10.226-21.821,20.27-20.625c23.207,3.181,12.505,34.966-1.557,26.236
	c-3.701-2.298-3.727-2.327-3.87-4.394c-0.297-4.133,4.311-5.937,7.003-2.729c0.668,0.797-1.044,4.142-1.875,3.678
	c-1-0.559-3.049,1.953,2.701,2.952c6.826,1.197,6.487-11.061-0.478-13.419c-9.613-3.244-16.003,8.822-9.135,16.394
	c16.056,17.744,42.684-18.26,15.663-32.395c-18.475-9.645-42.337,12.06-31.237,33.738c2.452,4.792,2.207,4.837-4.871,1.102
	c-8.291-4.478-14.014-12.115-12.748-17.769c0.794-3.476-2.466-5.685-5.108-3.468c-1.95,1.625-7.919,1.577-9.902,2.918
	c-4.937,3.333,2.291-5.441-7.881-10.033c-3.591-1.578-8.108-1.612-11.332,0.677c-3.335,2.375-3.347,2.393-26.818-6.909
	c-96.201-36.086-111.797-30.225-114.768-39.06c-1.263-3.755-4.946-6.34-8.77-7.219c-10.859-2.225-10.271,9.008-12.275,3.509
	c-0.815-2.239-5.666-5.671-6.295-8.202c-0.837-3.342-4.774-3.461-6.173-0.179c-2.607,6.075-13.018,7.987-20.754,6.892
	c-7.925-1.109-8.097-1.288-3.296-3.741c25.067-12.794,12.334-52.147-15.042-45.062c-20.675,5.251-16.852,39.114,3.232,34.804
	c10.299-2.257,11.672-15.793,2.239-18.633c-7.023-2.153-14.502,7.594-8.273,10.608c5.345,2.596,4.922-0.704,3.922-0.818
	c-0.945-0.108-0.365-3.822,0.644-4.078c4.064-1.031,6.734,3.123,4.065,6.303c-1.33,1.593-1.368,1.602-5.715,1.305
	c-12.744-0.864-10.152-21.844,3.55-23.843c8.087-1.252,14.399,2.875,17.319,8.911c8.065,16.638-10.293,31.053-18.17,30.172
	c0,0-6.986,0.966-15.558,0.194c-9.294-0.63-9.613-1.005-10.089-3.286c-1.149-5.543-13.441-6.9-15.82-1.55
	c-0.819,1.849-0.956,1.889-6.729,1.97c-7.837,0.112-8.152-0.113-3.828-3.112c17.736-12.197,11.207-42.546-9.964-43.044
	c-9.816-0.26-17.206,5.713-19.841,13.489c-5.49,16.236,13.773,25.483,21.588,15.151c2.728-3.618,3.12-8.793-1.045-12.84
	c-4.052-3.919-13.434-1.517-13.164,3.477c0.17,3.32,1.98,3.917,4.408,1.507c1.864-1.867,3.429-1.545,6.061-1.446
	c-0.683,7.705-0.28,7.476-3.034,8.054c-5.312,1.136-9.336-2.085-10.16-7.291c-2.491-15.756,24.894-21.644,29.402-2.648
	c1.535,6.489-0.28,14.284-6.105,19.846c-5.977,5.816-12.679,6.771-21.841,7.592c-6.05,0.582-26.932,0.734-34.567,0
	c-8.882-0.796-15.8-1.714-21.841-7.592c-13.825-13.199-4.861-38.425,16.1-30.033c11.411,4.48,8.821,22.647-2.964,20.126
	c-2.74-0.576-2.349-0.33-3.033-8.054c2.63-0.1,4.196-0.422,6.061,1.446c2.427,2.411,4.238,1.813,4.408-1.507
	c0.27-4.995-9.112-7.396-13.164-3.477c-4.164,4.047-3.773,9.222-1.045,12.84c7.812,10.328,27.078,1.084,21.588-15.151
	c-2.576-7.603-9.843-13.754-19.841-13.489c-21.15,0.498-27.713,30.838-9.964,43.044c4.324,2.999,4.008,3.223-3.828,3.112
	c-5.773-0.082-5.91-0.121-6.729-1.97c-2.379-5.351-14.671-3.993-15.82,1.55c-0.477,2.287-0.809,2.658-10.089,3.286
	c-47.763,4.3-41.482-43.161-16.408-39.278c13.702,1.999,16.293,22.979,3.55,23.843c-4.347,0.297-4.385,0.288-5.715-1.305
	c-2.669-3.18,0.001-7.333,4.065-6.303c1.009,0.257,1.589,3.97,0.644,4.078c-1,0.114-1.423,3.414,3.922,0.818
	c6.229-3.014-1.25-12.761-8.273-10.608c-9.432,2.84-8.06,16.376,2.239,18.633c20.079,4.309,23.909-29.552,3.232-34.804
	c-27.39-7.088-40.095,32.276-15.042,45.062c4.801,2.453,4.629,2.632-3.296,3.741c-7.562,1.07-18.111-0.733-20.755-6.892
	c-1.4-3.282-5.337-3.164-6.173,0.179c-0.634,2.547-5.472,5.94-6.295,8.202c-2.032,5.574-1.356-5.746-12.275-3.509
	c-3.824,0.879-7.507,3.464-8.77,7.219c-1.299,3.863-1.298,3.912-25.763,10.156c-98.563,27.213-108.272,41.189-115.823,35.812
	c-3.224-2.289-7.741-2.255-11.332-0.677c-10.105,4.562-3.025,13.312-7.881,10.033c-1.984-1.341-7.952-1.292-9.902-2.918
	c-2.642-2.216-5.902-0.008-5.108,3.468c1.267,5.654-4.457,13.291-12.748,17.769c-7.078,3.734-7.322,3.69-4.871-1.102
	c6.203-12.115,1.448-24.576-7.486-31.195c-16.688-12.39-36.939,1.037-35.214,16.916c1.45,13.216,16.836,24.308,27.126,12.936
	c6.868-7.573,0.478-19.638-9.135-16.394c-6.965,2.358-7.304,14.615-0.478,13.419c5.749-0.999,3.701-3.511,2.701-2.952
	c-0.83,0.464-2.543-2.881-1.875-3.678c2.692-3.207,7.299-1.403,7.003,2.729c-0.293,4.235-11.425,10.646-17.212-0.127
	c-5.487-10.179,1.944-20.366,11.786-21.715c16.414-1.954,33.173,24.135,5.583,42.847c-13.491,9.196-13.918,8.095-15.465,6.69
	c-4.231-3.901-14.9,2.498-13.704,8.057c0.421,1.973,0.333,2.085-4.311,5.51c-12.155,9.404-0.47-1.046-4.602-14.826
	c-4.201-14.028-20.354-23.306-33.686-14.385c-16.364,10.74-8.653,37.74,9.616,32.842c15.18-4.065,7.852-25.424-3.911-19.721
	c-10.933,5.453-1.255,16.922,0.023,8.463c0.399-2.649,1.894-3.373,4.025-4.777c3.986,6.647,4.153,6.179,2.283,8.301
	c-3.938,4.487-9.076,3.512-12.481,0.122c-8.745-8.734,0.487-22.018,10.295-23.319c12.473-1.657,45.139,22.367-22.475,62.864
	c-5.137,3.123-10.259,5.555-13.55,6.34c-24.937,5.564-38.147-27.511-13.246-33.377c12.176-2.959,20.317,13.248,9.425,17.976
	c-2.576,1.12-2.111,1.094-7.216-4.75c2.096-1.611,3.182-2.77,5.799-2.341c3.411,0.556,4.512-1.007,2.689-3.8
	c-2.72-4.163-11.859-0.636-12.734,4.889c-1.377,8.287,6.328,13.251,13.555,10.853c8.479-2.846,13.056-16.821,1.689-24.836
	c-15.88-11.229-39.041,5.295-29.616,26.425c10.97,24.602,37.969,8.63,21.666,19.799c-4.721,3.325-4.825,3.409-6.581,2.392
	c-2.461-1.42-6.022-0.081-8.683,2.261c-6.123,5.395-2.354,8.658-2.812,10.462c-0.316,1.27-16.179,16.821-27.516,18.127
	c-22.166,2.812-33.723-24.026-15.469-33.755c5.815-3.093,12.486-1.313,16.725,3.102c8.375,8.755-0.991,17.449-5.181,16.407
	c-4.02-0.988-4.322-5.931-0.446-7.508c0.963-0.391,3.618,2.268,2.922,2.916c-0.263,0.245-0.176,0.772,0.193,1.17
	c0.794,0.854,2.046-0.177,3.443-2.835c3.232-6.132-8.527-9.577-12.905-3.671c-6.034,8.155,3.475,17.952,12.784,13.74
	c16.282-7.297,5.755-30.719-10.585-31.358c-7.59-0.312-16.771,5.066-20.13,13.567c-6.145,15.858,7.046,36.285,27.19,33.015
	c5.31-0.86,5.277-0.613-0.448,4.977c-6.801,6.522-15.86,9.581-20.831,6.649c-3.061-1.827-6.163,0.596-4.869,3.794
	c0.375,0.917,0.313,3.228-0.048,5.212c-1.139,5.986,1.762,8.338-2.583,6.434c-6.467-2.842-14.921,6.251-12.484,14.051
	c2.472,7.851-6.711,7.928-56.979,79.665c-23.001,32.826-23.894,40.645-30.607,40.695c-8.146,0.064-14.217,10.929-9.526,16.205
	c3.147,3.545,0.015,1.512-5.335,4.434c-1.733,0.978-3.945,1.732-4.924,1.662c-3.443-0.247-4.797,3.449-2.117,5.798
	c5.165,4.547,3.229,15.633,0.095,21.867c-3.561,7.166-3.786,7.273-4.601,1.96c-2.055-13.438-13.212-20.74-24.341-20.866
	c-26.466-0.327-32.142,35.539-7.267,40.73c8.434,1.729,17.008-1.616,18.219-11.81c1.142-10.152-11.11-16.177-17.015-7.92
	c-4.278,5.987,2.632,16.111,7.468,11.141c4.107-4.201,0.931-4.972,0.465-3.972c-0.402,0.862-3.751-0.843-3.675-1.879
	c0.308-4.173,5.105-5.411,7.284-1.892c1.094,1.756,1.09,1.795-0.57,5.823c-5.021,11.984-24.019,2.564-21.554-10.782
	c3.625-20.278,32.587-17.792,36.885,4.295c2.252,11.024-7.619,31.074-8.751,31.768c-0.401,0.253-1.383,0.387-2.182,0.298
	c-5.734-0.637-10.559,10.79-6.363,14.568c1.512,1.356,1.461,1.48-0.239,6.998c-3.671,12.487-2.147,3.303-7.445-4.127
	c-7.2-10.192-21.61-13.282-31.522-7.85c-12.679,6.943-14.138,25.2-2.523,33.857c11.119,8.309,23.009-0.333,23.086-9.306
	c0.075-7.514-6.99-13.44-14.51-9.529c-5.007,2.557-5.497,12.335-0.708,13.628c3.22,0.869,4.365-0.663,2.778-3.736
	c-1.183-2.287-0.513-3.733,0.434-6.24c7.103,3.031,7.016,2.577,6.746,5.39c-0.562,5.943-5.299,8.17-10.047,7.424
	c-12.094-1.917-12.639-18.017-5.348-24.929c9.543-9.035,29.464-2.105,31.227,16.371c0.984,12.205-12.136,51.923-19.748,60.819
	c-12.274,13.917-32.468,7.825-34.886-5.095c-1.853-9.895,8.079-22.575,18.972-17.032c4.28,2.186,6.807,6.771,3.771,11.911
	c-1.428,2.421-1.069,2.125-8.629,0.398c0.746-2.529,0.942-4.111,3.317-5.304c6.028-3.034-1.941-8.381-6.442-1.505
	c-5.271,8.038,2.853,16.05,10.863,13.246c4.366-1.516,7.789-5.904,7.483-11.539c-1.012-18.447-28.464-18.386-34.222,1.048
	c-4.266,15.311,9.298,27.934,24.13,27.562c14.511-0.385,20.708-14.72,15.552-0.222c-1.88,5.461-1.899,5.595-3.922,5.803
	c-5.628,0.596-8.409,12.724-3.413,15.527c2.012,1.144,2.316,1.574,0.115,10.63c-1.766,7.268-4.54,16.662-10.082,21.748
	c-10.21,9.228-22.669,7.276-29.237,1.025c-10.724-10.045-3.2-29.329,12.211-26.555c11.929,2.132,9.398,14.716,5.459,16.319
	c-3.827,1.569-6.987-2.253-4.791-5.812c0.546-0.884,4.257-0.296,4.078,0.638c-0.068,0.353,0.313,0.728,0.847,0.833
	c2.148,0.42,2.631-10.231-5.541-7.343c-3.02,1.089-5.911,3.995-5.932,7.654c-0.055,10.154,13.399,12.476,18.422,3.586
	c4.714-8.353,0.698-16.436-7.806-20.26c-17.15-7.734-31.375,8.372-27.506,23.956c4.241,16.274,27.011,25.292,41.403,10.684
	c3.803-3.891,3.883-3.496,2.581,4.29c-1.237,7.467-6.399,17.026-12.922,17.641c-3.546,0.327-4.609,4.115-1.673,5.938
	c0.833,0.518,2.191,2.43,3.018,4.239c2.492,5.49,6.328,5.688,1.67,6.717c-6.907,1.518-8.282,14.002-1.817,18.709
	c5.598,4.116,1.126,3.85,0.591,74.426c0.537,70.742,5.003,70.313-0.591,74.426c-6.464,4.706-5.091,17.19,1.817,18.709
	c4.66,1.029,0.821,1.228-1.67,6.717c-0.827,1.81-2.185,3.721-3.018,4.239c-2.936,1.823-1.873,5.611,1.673,5.938
	c6.567,0.619,11.697,10.248,12.922,17.641c1.306,7.813,1.206,8.165-2.581,4.29c-14.371-14.586-37.153-5.623-41.403,10.684
	c-3.752,15.114,9.949,31.873,27.506,23.956c8.51-3.826,12.519-11.911,7.806-20.26c-5.023-8.89-18.477-6.568-18.422,3.586
	c0.021,3.658,2.912,6.564,5.932,7.654c8.182,2.891,7.686-7.763,5.541-7.343c-0.533,0.105-0.914,0.48-0.847,0.833
	c0.179,0.934-3.532,1.522-4.078,0.638c-2.196-3.559,0.964-7.38,4.791-5.812c3.95,1.607,6.49,14.184-5.459,16.319
	c-15.468,2.784-22.886-16.555-12.211-26.555c8.27-7.871,30.902-11.872,39.319,22.773c2.203,9.07,1.886,9.492-0.115,10.63
	c-4.996,2.803-2.215,14.931,3.413,15.527c2.023,0.208,2.042,0.342,3.922,5.803c5.139,14.451-1.087,0.161-15.552-0.222
	c-14.747-0.369-28.413,12.188-24.13,27.562c5.748,19.402,33.209,19.523,34.222,1.048c0.303-5.584-3.073-10.008-7.483-11.539
	c-8.019-2.807-16.125,5.222-10.863,13.246c4.518,6.902,12.455,1.521,6.442-1.505c-2.376-1.194-2.573-2.781-3.317-5.304
	c7.549-1.725,7.197-2.03,8.629,0.398c3.036,5.14,0.51,9.725-3.771,11.911c-10.798,5.495-20.841-7.052-18.972-17.032
	c2.419-12.92,22.611-19.013,34.886-5.095c7.49,8.753,20.737,48.559,19.748,60.819c-1.763,18.475-21.683,25.407-31.227,16.371
	c-7.296-6.916-6.741-23.012,5.348-24.928c4.748-0.746,9.485,1.481,10.047,7.424c0.268,2.798,0.379,2.35-6.746,5.39
	c-0.95-2.517-1.615-3.958-0.434-6.24c1.586-3.072,0.441-4.604-2.778-3.736c-4.787,1.293-4.304,11.069,0.708,13.628
	c7.51,3.906,14.585-2.004,14.51-9.529c-0.077-8.948-11.944-17.633-23.086-9.306c-11.637,8.673-10.131,26.928,2.523,33.857
	c9.913,5.432,24.323,2.341,31.522-7.85c5.293-7.422,3.777-16.604,7.445-4.127c1.7,5.519,1.751,5.643,0.239,6.999
	c-4.191,3.775,0.621,15.206,6.363,14.568c0.799-0.089,1.781,0.045,2.182,0.298c1.04,0.638,11.044,20.547,8.751,31.768
	c-4.293,22.06-33.257,24.591-36.885,4.295c-2.465-13.346,16.533-22.765,21.554-10.782c1.66,4.027,1.664,4.067,0.57,5.823
	c-2.179,3.519-6.976,2.28-7.284-1.892c-0.076-1.037,3.273-2.741,3.675-1.879c0.467,1,3.642,0.229-0.465-3.972
	c-4.836-4.969-11.746,5.155-7.468,11.141c5.905,8.257,18.157,2.232,17.015-7.92c-1.211-10.194-9.786-13.539-18.219-11.81
	c-24.88,5.191-19.192,41.057,7.267,40.729c11.129-0.126,22.286-7.428,24.341-20.866c0.815-5.314,1.039-5.207,4.601,1.96
	c3.159,6.285,5.048,17.339-0.095,21.867c-2.68,2.349-1.326,6.045,2.117,5.797c0.979-0.07,3.191,0.684,4.924,1.662
	c5.346,2.92,8.482,0.889,5.335,4.434c-4.686,5.27,1.37,16.141,9.526,16.204c6.713,0.05,7.547,7.782,30.607,40.695
	c50.311,71.799,59.45,71.815,56.979,79.665c-2.437,7.799,6.016,16.893,12.484,14.051c4.33-1.898,1.439,0.42,2.583,6.434
	c0.36,1.984,0.423,4.296,0.048,5.212c-1.295,3.198,1.807,5.621,4.869,3.794c4.971-2.932,14.031,0.127,20.831,6.649
	c5.725,5.59,5.758,5.837,0.448,4.977c-20.129-3.267-33.341,17.142-27.19,33.015c3.339,8.453,12.486,13.881,20.13,13.567
	c16.334-0.638,26.871-24.059,10.585-31.358c-9.309-4.212-18.818,5.585-12.784,13.74c4.378,5.906,16.137,2.461,12.905-3.671
	c-1.396-2.658-2.649-3.689-3.443-2.835c-0.37,0.399-0.457,0.925-0.193,1.17c0.696,0.648-1.959,3.307-2.922,2.916
	c-3.875-1.577-3.574-6.519,0.446-7.508c4.103-1.02,13.625,7.581,5.181,16.407c-4.175,4.349-10.836,6.234-16.725,3.102
	c-18.255-9.729-6.695-36.566,15.469-33.755c11.136,1.283,27.184,16.79,27.516,18.127c0.464,1.827-3.329,5.051,2.812,10.462
	c2.661,2.342,6.221,3.681,8.683,2.261c1.756-1.018,1.86-0.934,6.581,2.391c16.313,11.175-10.692-4.811-21.666,19.799
	c-9.417,21.112,13.729,37.659,29.616,26.425c11.283-7.955,6.88-21.96-1.689-24.836c-7.177-2.382-14.94,2.516-13.555,10.853
	c0.874,5.518,10.012,9.055,12.734,4.889c1.823-2.792,0.722-4.356-2.689-3.8c-2.617,0.429-3.703-0.731-5.799-2.341
	c5.093-5.831,4.629-5.875,7.216-4.75c10.893,4.729,2.75,20.935-9.425,17.976c-24.857-5.856-11.723-38.949,13.246-33.377
	c3.291,0.785,8.413,3.217,13.55,6.34c67.471,40.412,35.019,64.531,22.475,62.865c-9.791-1.298-19.058-14.567-10.295-23.318
	c3.405-3.391,8.543-4.365,12.481,0.122c1.858,2.11,1.716,1.633-2.283,8.302c-2.13-1.403-3.627-2.126-4.025-4.777
	c-1.278-8.458-10.957,3.009-0.023,8.463c11.81,5.725,19.066-15.663,3.911-19.721c-18.273-4.899-25.974,22.106-9.616,32.842
	c13.332,8.921,29.484-0.357,33.686-14.385c4.137-13.795-7.564-24.238,4.602-14.826c4.644,3.426,4.732,3.537,4.311,5.51
	c-1.196,5.559,9.473,11.958,13.704,8.057c1.531-1.391,1.895-2.561,15.465,6.69c27.584,18.709,10.836,44.801-5.583,42.847
	c-9.753-1.337-17.32-11.448-11.786-21.715c5.718-10.643,16.912-4.479,17.212-0.127c0.296,4.133-4.311,5.937-7.003,2.729
	c-0.668-0.797,1.044-4.142,1.875-3.678c1,0.559,3.049-1.953-2.701-2.952c-6.826-1.197-6.487,11.061,0.478,13.419
	c9.613,3.244,16.003-8.822,9.135-16.394c-10.288-11.37-25.676-0.281-27.126,12.936c-1.72,15.829,18.479,29.341,35.214,16.916
	c8.934-6.619,13.689-19.08,7.486-31.195c-2.452-4.792-2.207-4.837,4.871-1.102c8.291,4.478,14.014,12.115,12.748,17.769
	c-0.794,3.476,2.466,5.685,5.108,3.469c1.95-1.625,7.919-1.577,9.902-2.918c4.937-3.333-2.291,5.441,7.881,10.033
	c3.591,1.578,8.108,1.612,11.332-0.677c7.47-5.32,17.94,8.79,115.823,35.812c24.464,6.244,24.464,6.293,25.763,10.156
	c1.263,3.755,4.946,6.34,8.77,7.219c10.859,2.225,10.272-9.008,12.275-3.509c0.815,2.239,5.666,5.671,6.295,8.202
	c0.837,3.342,4.774,3.461,6.173,0.179c2.626-6.118,13.085-7.977,20.755-6.892c7.925,1.109,8.097,1.288,3.296,3.741
	c-25.068,12.794-12.334,52.147,15.042,45.062c20.675-5.251,16.852-39.114-3.232-34.804c-10.299,2.257-11.672,15.793-2.239,18.633
	c7.023,2.153,14.502-7.594,8.273-10.608c-5.345-2.596-4.922,0.704-3.922,0.818c0.945,0.108,0.365,3.822-0.644,4.078
	c-4.064,1.031-6.734-3.123-4.065-6.302c1.33-1.593,1.368-1.602,5.715-1.305c12.744,0.864,10.152,21.844-3.55,23.843
	c-25.061,3.88-31.386-43.58,16.408-39.278c9.294,0.629,9.613,1.005,10.089,3.286c1.149,5.543,13.441,6.901,15.82,1.55
	c0.819-1.849,0.956-1.889,6.729-1.97c7.836-0.112,8.152,0.113,3.828,3.112c-17.736,12.197-11.207,42.546,9.964,43.044
	c9.816,0.26,17.205-5.711,19.841-13.49c5.49-16.236-13.773-25.484-21.588-15.151c-2.728,3.618-3.12,8.793,1.045,12.84
	c4.052,3.919,13.434,1.517,13.164-3.477c-0.17-3.32-1.98-3.917-4.408-1.507c-1.866,1.869-3.435,1.545-6.061,1.446
	c0.683-7.705,0.28-7.476,3.033-8.054c11.786-2.522,14.375,15.646,2.964,20.126c-20.983,8.401-29.911-16.848-16.1-30.033
	c5.977-5.816,12.679-6.771,21.841-7.592c6.05-0.582,26.932-0.734,34.567,0c8.972,0.804,15.835,1.748,21.841,7.592
	c5.629,5.375,7.703,13.089,6.105,19.846c-4.532,19.097-31.881,13.03-29.402-2.648c0.823-5.202,4.843-8.429,10.16-7.291
	c2.74,0.576,2.349,0.326,3.034,8.054c-2.63,0.099-4.196,0.422-6.061-1.446c-2.427-2.411-4.238-1.813-4.408,1.507
	c-0.27,4.995,9.112,7.396,13.164,3.477c4.164-4.047,3.773-9.222,1.045-12.84c-7.812-10.328-27.078-1.085-21.588,15.151
	c2.594,7.655,9.894,13.753,19.841,13.49c21.149-0.498,27.713-30.838,9.964-43.044c-4.324-2.999-4.008-3.224,3.828-3.112
	c5.773,0.081,5.91,0.121,6.729,1.97c2.379,5.351,14.671,3.993,15.82-1.55c1.076-5.158,26.871-3.229,25.647-3.092
	c7.414-0.828,26.416,13.161,18.17,30.172c-2.92,6.037-9.232,10.164-17.319,8.911c-13.702-1.998-16.293-22.979-3.55-23.843
	c4.347-0.297,4.385-0.288,5.715,1.305c2.669,3.18-0.001,7.333-4.065,6.302c-1.009-0.257-1.589-3.97-0.644-4.078
	c1-0.114,1.423-3.414-3.922-0.818c-6.229,3.014,1.249,12.761,8.273,10.608c9.432-2.84,8.06-16.376-2.239-18.633
	c-20.079-4.309-23.909,29.552-3.232,34.804c27.39,7.089,40.095-32.276,15.042-45.062c-4.801-2.453-4.629-2.632,3.296-3.741
	c7.752-1.096,18.151,0.825,20.754,6.892c1.4,3.282,5.337,3.164,6.173-0.179c0.633-2.546,5.472-5.94,6.295-8.202
	c2.031-5.574,1.356,5.746,12.275,3.509c3.824-0.879,7.507-3.464,8.77-7.219c2.23-6.632,3.72-2.149,75.747-25.133
	c43.686-13.317,59.422-25.406,65.839-20.835c3.224,2.289,7.741,2.255,11.332,0.677c10.106-4.562,3.025-13.312,7.881-10.033
	c1.984,1.341,7.952,1.292,9.902,2.918c2.642,2.216,5.902,0.008,5.108-3.469c-1.267-5.654,4.457-13.291,12.748-17.769
	c7.078-3.734,7.322-3.69,4.871,1.102c-11.082,21.643,12.737,43.396,31.237,33.738c27.019-14.132,0.379-50.124-15.663-32.395
	c-6.868,7.573-0.478,19.638,9.135,16.394c6.965-2.358,7.304-14.615,0.478-13.419c-5.749,0.999-3.701,3.511-2.701,2.952
	c0.83-0.464,2.542,2.881,1.875,3.678c-2.692,3.207-7.299,1.403-7.003-2.729c0.143-2.066,0.169-2.096,3.87-4.394
	c14.104-8.756,24.672,23.068,1.557,26.236c-10.058,1.197-19.875-7.381-20.27-20.625c-0.347-11.565,10.276-19.598,20.032-25.686
	c7.914-4.939,8.415-4.775,10.121-3.225c4.231,3.901,14.9-2.498,13.703-8.057c-0.421-1.973-0.333-2.085,4.311-5.51
	c12.157-9.405,0.469,1.045,4.602,14.826c6.764,22.587,35.466,23.39,41.729,3.702c3.855-12.115-4.417-25.708-17.659-22.158
	c-15.18,4.065-7.851,25.423,3.911,19.721c10.933-5.454,1.255-16.921-0.023-8.463c-0.399,2.649-1.894,3.373-4.025,4.777
	c-3.986-6.647-4.153-6.179-2.284-8.302c8.057-9.181,23.529,4.818,11.523,18.109c-14.052,15.388-37.078-5.943-25.016-26.501
	c5.518-9.487,39.599-34.729,51.704-37.616c24.946-5.566,38.141,27.512,13.246,33.377c-12.177,2.959-20.317-13.248-9.425-17.976
	c2.576-1.12,2.111-1.094,7.216,4.75c-2.096,1.611-3.182,2.77-5.799,2.341c-3.411-0.557-4.512,1.007-2.688,3.8
	c2.72,4.163,11.859,0.636,12.734-4.889c1.382-8.319-6.361-13.24-13.555-10.853c-8.479,2.846-13.056,16.822-1.689,24.836
	c11.832,8.367,28.725,1.311,31.395-12.873c2.095-11.116-5.32-23.866-17.218-27.548c-8.694-2.737-16.956,1.546-6.227-5.804
	c4.721-3.325,4.825-3.409,6.581-2.391c4.886,2.819,14.271-5.286,11.885-10.556c-0.331-0.732-0.507-1.707-0.39-2.167
	c0.315-1.27,16.179-16.821,27.516-18.127c13.043-1.655,22.533,7.094,24.218,16.36c2.669,14.726-14.752,25.462-25.474,14.292
	c-8.375-8.755,0.991-17.449,5.181-16.407c4.02,0.989,4.322,5.931,0.446,7.508c-0.963,0.391-3.618-2.268-2.922-2.916
	c0.263-0.245,0.176-0.772-0.193-1.17c-0.794-0.854-2.047,0.177-3.443,2.835c-3.232,6.132,8.527,9.577,12.905,3.671
	c6.034-8.155-3.475-17.952-12.784-13.74c-8.75,3.922-10.194,12.945-5.604,20.972c9.549,16.687,30.607,11.275,36.318-3.181
	c6.142-15.851-7.04-36.286-27.19-33.015c-5.31,0.86-5.277,0.613,0.448-4.977c6.801-6.522,15.86-9.581,20.831-6.649
	c3.061,1.827,6.163-0.596,4.869-3.794c-0.375-0.917-0.313-3.228,0.048-5.212c1.14-5.992-1.758-8.337,2.583-6.434
	c6.467,2.841,14.921-6.25,12.484-14.051c-1.91-6.065,1.804-5.624,33.115-46.678c25.071-33.047,46.19-66.867,45.541-65.864
	c9.412-14.526,8.567-2.832,16.742-11.532c3.31-3.65,4.689-9.144,1.714-12.49c-3.147-3.545-0.015-1.512,5.335-4.434
	c1.733-0.978,3.945-1.732,4.924-1.662c3.443,0.247,4.797-3.449,2.117-5.797c-5.151-4.535-3.245-15.6-0.095-21.867
	c3.561-7.166,3.786-7.274,4.6-1.96c4.205,27.495,45.535,28.252,47.518-0.291c1.423-21.035-31.677-28.415-34.13-7.762
	c-1.142,10.152,11.11,16.177,17.015,7.92c4.278-5.987-2.632-16.111-7.468-11.141c-4.107,4.201-0.932,4.972-0.465,3.972
	c0.402-0.862,3.751,0.843,3.675,1.879c-0.308,4.173-5.105,5.411-7.284,1.892c-1.094-1.756-1.09-1.795,0.57-5.823
	c5.021-11.984,24.019-2.564,21.554,10.782c-3.624,20.277-32.586,17.794-36.885-4.295c-2.252-11.024,7.619-31.073,8.751-31.768
	c1.585-1,5.834,1.599,9.077-5.91c1.406-3.255,1.58-7.055-0.531-8.957c-1.512-1.355-1.461-1.48,0.239-6.999
	c5.574-18.962-1.254,11.661,25.53,14.481c22.945,2.418,31.621-24.689,15.961-36.361c-11.063-8.268-23.008,0.271-23.086,9.306
	c-0.075,7.515,6.99,13.44,14.51,9.529c5.005-2.556,5.499-12.334,0.708-13.628c-3.22-0.869-4.365,0.663-2.778,3.736
	c1.183,2.287,0.512,3.736-0.434,6.24c-7.102-3.031-7.016-2.577-6.746-5.39c0.562-5.943,5.299-8.17,10.047-7.424
	c12.101,1.918,12.633,18.022,5.348,24.928c-9.544,9.036-29.464,2.104-31.227-16.371c-0.967-11.993,11.918-51.668,19.748-60.819
	c12.274-13.917,32.467-7.825,34.886,5.095c1.852,9.894-8.078,22.576-18.972,17.032c-4.28-2.186-6.807-6.771-3.77-11.911
	c1.428-2.421,1.069-2.125,8.629-0.398c-0.746,2.529-0.942,4.111-3.317,5.304c-6.027,3.034,1.94,8.382,6.441,1.505
	c5.272-8.038-2.852-16.05-10.863-13.246c-4.294,1.491-7.793,5.833-7.483,11.539c1.012,18.447,28.464,18.386,34.222-1.048
	c4.265-15.309-9.295-27.934-24.13-27.562c-14.516,0.385-20.71,14.726-15.552,0.222c1.88-5.461,1.899-5.595,3.922-5.803
	c5.628-0.596,8.409-12.724,3.413-15.527c-2.008-1.141-2.316-1.574-0.116-10.63c1.767-7.27,4.54-16.662,10.082-21.748
	c10.21-9.228,22.669-7.276,29.237-1.025c10.724,10.046,3.2,29.328-12.211,26.555c-11.939-2.133-9.389-14.72-5.459-16.319
	c3.827-1.569,6.987,2.253,4.791,5.812c-0.546,0.884-4.257,0.296-4.078-0.638c0.068-0.353-0.313-0.728-0.847-0.833
	c-2.148-0.42-2.631,10.231,5.541,7.343c3.019-1.089,5.911-3.995,5.932-7.654c0.055-10.154-13.399-12.476-18.422-3.586
	c-4.714,8.352-0.698,16.437,7.806,20.26c17.166,7.741,31.372-8.384,27.507-23.956C1606.194,960.531,1583.426,951.51,1569.032,966.12
	z M1566.289,922.27L1566.289,922.27c-2.881-8.049,4.677-15.011,8.548-7.957C1578.253,920.567,1569.882,932.308,1566.289,922.27z
	 M1574.838,754.008c-3.871,7.054-11.429,0.092-8.548-7.957l0,0C1569.902,735.957,1578.24,747.777,1574.838,754.008z
	 M1563.476,726.899c5.614-6.844,0.907-6.215,8.153-1.169c4.645,3.241,2.991,9.869-2.677,10.585c-5.671,0.716-9.058-5.06-5.476-9.418
	L1563.476,726.899z M1552.643,655.25c2.195-2.191,5.325,1.319,4.352,4.873C1555.518,665.499,1549.704,658.173,1552.643,655.25z
	 M1519.019,543.145c2.873,2.305,2.4,6.986-0.663,6.501v0C1514.256,549.005,1514.677,539.667,1519.019,543.145z M1483.943,474.458
	c5.047-2.772,10.232,1.646,8.374,6.998c-2.937,8.405,1.204,6.079-7.285,3.843l0.001,0.002
	C1479.578,483.878,1478.974,477.188,1483.943,474.458z M1478.318,456.678c6.432,3.022,6.53,17.515-2.256,11.469v0
	C1469.183,463.456,1470.834,453.267,1478.318,456.678z M1378.631,320.562c7.614,3.615,6.686,12.649,0.811,11.878
	c-2.678-0.38-5.822-2.696-7.051-6.773l0,0C1370.433,319.131,1375.223,318.96,1378.631,320.562z M1364.735,306.102
	c5.684-0.137,8.259,6.185,4.068,10.132c-4.129,3.888-10.277,1.223-9.97-4.388l0.002,0.002
	C1359.316,303.09,1355.829,306.313,1364.735,306.102z M1307.911,260.29c0.486-3.062,5.084-2.066,6.389,1.378
	C1316.115,266.476,1307.911,265.034,1307.911,260.29z M1214.861,189.291c3.675,0.187,6.034,4.262,3.271,5.664l0,0
	C1214.446,196.834,1209.286,189.018,1214.861,189.291z M1151.916,150.624c5.261,0.394,5.113,5.968,6.856,8.917
	c1.252,2.117,0.531,0.571-5.374,2.848l0.002,0.001C1144.042,165.993,1142.617,149.986,1151.916,150.624z M1139.002,146.245
	c2.346,2.506,4.193,7.354-2.93,7.511l0,0c-4.183,0.092-7.474-2.186-8.621-4.61C1124.889,143.761,1133.294,140.145,1139.002,146.245z
	 M974.957,91.59c4.906,1.197,7.632,6.692,3.222,9.099c-2.915,1.588-6.985,0.71-9.682-1.345l0,0
	C961.701,94.194,969.246,90.316,974.957,91.59z M950.792,88.034c4.607-3.524,10.286,0.226,9.248,5.82
	c-1.047,5.649-7.653,6.913-10.638,2.298l0.003,0C944.64,88.817,943.702,93.477,950.792,88.034z M883.859,81.836
	c4.849,3.263-4.25,6.012-5.971,2.613h0C876.476,81.709,880.783,79.729,883.859,81.836z M760.872,81.836
	c3.076-2.107,7.384-0.127,5.971,2.613C764.997,88.093,756.203,84.978,760.872,81.836z M693.94,88.034
	c7.084,5.438,6.154,0.782,1.388,8.119l0.002,0c-2.983,4.612-9.59,3.355-10.638-2.298C683.656,88.268,689.325,84.504,693.94,88.034z
	 M669.775,91.59c5.666-1.265,13.297,2.573,6.46,7.754l0,0c-2.775,2.115-6.836,2.896-9.682,1.345
	C662.141,98.282,664.873,92.786,669.775,91.59z M513.569,143.166c8.02,1.605,3.512,10.775-4.909,10.591l0,0
	C497.985,153.522,506.644,141.716,513.569,143.166z M487.688,155.004c1.617-5.441,8.404-5.971,10.897-0.737
	c2.42,5.08-1.997,10.147-7.253,8.123l0.002-0.001C483.158,159.237,485.142,163.554,487.688,155.004z M429.87,189.291
	c5.563-0.272,0.422,7.546-3.271,5.664l0,0C423.837,193.553,426.195,189.478,429.87,189.291z M330.433,261.668
	c1.305-3.444,5.902-4.44,6.389-1.378C336.821,265.056,328.62,266.466,330.433,261.668z M279.997,306.102
	c8.849,0.209,5.415-3.072,5.901,5.746l0.002-0.002c0.307,5.611-5.841,8.276-9.97,4.388
	C271.738,312.288,274.313,305.965,279.997,306.102z M266.101,320.562c3.103-1.459,8.285-1.723,6.24,5.105l0,0
	c-1.228,4.077-4.373,6.393-7.051,6.773C259.414,333.211,258.488,324.177,266.101,320.562z M166.414,456.678
	c7.483-3.411,9.135,6.778,2.257,11.469v0C159.86,474.211,159.989,459.697,166.414,456.678z M160.789,474.458
	c4.97,2.73,4.365,9.42-1.091,10.844l0.001-0.002c-8.481,2.234-4.345,4.571-7.285-3.843
	C150.556,476.104,155.741,471.686,160.789,474.458z M125.713,543.145c4.35-3.484,4.757,5.861,0.663,6.501v0
	C123.313,550.13,122.839,545.45,125.713,543.145z M92.089,655.25c2.954,2.939-2.88,10.228-4.352,4.873
	C86.764,656.569,89.894,653.058,92.089,655.25z M73.103,725.729c7.248-5.047,2.54-5.675,8.153,1.169l0-0.002
	c3.582,4.358,0.195,10.134-5.476,9.418C70.112,735.598,68.458,728.97,73.103,725.729z M78.442,746.051L78.442,746.051
	c2.881,8.048-4.677,15.011-8.548,7.957C66.489,747.771,74.841,735.986,78.442,746.051z M69.894,914.313
	c3.871-7.053,11.43-0.093,8.548,7.957l0,0C74.83,932.363,66.492,920.544,69.894,914.313z M81.256,941.422
	c-5.613,6.844-0.907,6.215-8.153,1.169c-4.645-3.241-2.991-9.869,2.677-10.585c5.671-0.716,9.058,5.06,5.476,9.418L81.256,941.422z
	 M92.089,1013.071L92.089,1013.071c-2.195,2.191-5.325-1.319-4.352-4.873C89.214,1002.822,95.028,1010.148,92.089,1013.071z
	 M125.713,1125.176c-2.873-2.305-2.4-6.985,0.663-6.501v0C130.491,1119.318,130.046,1128.647,125.713,1125.176z M160.789,1193.863
	c-5.047,2.772-10.232-1.646-8.374-6.999c2.936-8.404-1.202-6.079,7.285-3.843l-0.001-0.002
	C165.154,1184.443,165.758,1191.132,160.789,1193.863z M166.414,1211.642c-6.432-3.022-6.53-17.515,2.257-11.469v0
	C175.549,1204.865,173.898,1215.054,166.414,1211.642z M266.101,1347.759c-7.614-3.615-6.687-12.649-0.811-11.878
	c2.678,0.38,5.822,2.696,7.051,6.773l0,0C274.298,1349.189,269.509,1349.361,266.101,1347.759z M279.997,1362.218
	c-5.684,0.137-8.259-6.185-4.068-10.132c4.129-3.888,10.277-1.223,9.97,4.388l-0.002-0.002
	C285.416,1365.231,288.903,1362.008,279.997,1362.218z M336.821,1408.031c-0.486,3.062-5.084,2.066-6.389-1.378
	C328.463,1401.439,337.478,1403.94,336.821,1408.031z M429.87,1479.03c-3.675-0.187-6.034-4.262-3.271-5.664h0
	C430.294,1471.483,435.431,1479.302,429.87,1479.03z M492.816,1517.696c-5.261-0.394-5.113-5.968-6.856-8.917
	c-1.251-2.116-0.534-0.57,5.374-2.848l-0.002-0.001C500.69,1502.327,502.131,1518.336,492.816,1517.696z M505.73,1522.075
	c-2.346-2.506-4.191-7.355,2.93-7.511l0,0c4.183-0.092,7.474,2.186,8.621,4.609C519.843,1524.56,511.438,1528.176,505.73,1522.075z
	 M669.775,1576.73c-4.905-1.196-7.632-6.693-3.222-9.099c2.914-1.588,6.984-0.711,9.682,1.345l0,0
	C683.04,1574.133,675.476,1578.003,669.775,1576.73z M693.94,1580.287c-4.608,3.524-10.285-0.228-9.248-5.82
	c1.049-5.655,7.657-6.907,10.638-2.298l-0.002,0C700.091,1579.503,701.032,1574.843,693.94,1580.287z M760.872,1586.485
	c-4.848-3.262,4.248-6.014,5.971-2.613v0C768.256,1586.612,763.949,1588.591,760.872,1586.485z M883.859,1586.485
	c-3.076,2.107-7.384,0.127-5.971-2.613l0,0C879.734,1580.227,888.529,1583.342,883.859,1586.485z M950.792,1580.287
	c-7.09-5.443-6.152-0.784-1.388-8.119l-0.003,0c2.984-4.613,9.591-3.354,10.638,2.298
	C961.076,1580.05,955.409,1583.818,950.792,1580.287z M974.957,1576.73c-5.675,1.266-13.289-2.578-6.46-7.754l0,0
	c2.773-2.113,6.834-2.897,9.682-1.345C982.591,1570.039,979.859,1575.535,974.957,1576.73z M1131.163,1525.155
	c-8.017-1.604-3.514-10.775,4.909-10.591l0,0C1146.739,1514.798,1138.093,1526.606,1131.163,1525.155z M1157.044,1513.317
	c-1.617,5.441-8.404,5.97-10.897,0.737c-2.42-5.08,1.997-10.147,7.253-8.123l-0.002,0.001
	C1161.573,1509.084,1159.59,1504.767,1157.044,1513.317z M1214.861,1479.03c-5.563,0.272-0.421-7.546,3.271-5.664h0
	C1220.895,1474.768,1218.537,1478.843,1214.861,1479.03z M1314.299,1406.652c-1.305,3.444-5.902,4.44-6.389,1.378
	C1307.25,1403.918,1316.261,1401.459,1314.299,1406.652z M1364.735,1362.218c-8.849-0.209-5.416,3.072-5.901-5.746l-0.002,0.002
	c-0.307-5.611,5.841-8.276,9.97-4.388C1372.994,1356.033,1370.419,1362.355,1364.735,1362.218z M1378.631,1347.759
	c-3.103,1.459-8.285,1.723-6.24-5.105l0,0c1.228-4.077,4.373-6.393,7.051-6.773
	C1385.318,1335.109,1386.244,1344.144,1378.631,1347.759z M1478.318,1211.642c-7.483,3.411-9.135-6.778-2.256-11.468v0
	C1484.872,1194.11,1484.743,1208.624,1478.318,1211.642z M1483.943,1193.863c-4.97-2.73-4.365-9.42,1.091-10.844l-0.001,0.002
	c8.481-2.235,4.345-4.568,7.285,3.843C1494.176,1192.217,1488.99,1196.635,1483.943,1193.863z M1519.019,1125.176
	c-4.35,3.484-4.757-5.861-0.663-6.501v0C1521.419,1118.19,1521.892,1122.87,1519.019,1125.176z M1552.643,1013.071
	L1552.643,1013.071c-2.954-2.939,2.88-10.228,4.352-4.873C1557.968,1011.752,1554.838,1015.262,1552.643,1013.071z
	 M1561.025,967.499c-0.508,0.409-1.102-0.769-2.282-3.192c-7.902-16.399-32.335-18.087-42.386-4.657l0,0.018
	c-10.312,13.304,2.427,35.252,21.797,29.487c6.476-1.919,10.764-6.956,9.768-13.899c-1.438-9.822-14.898-12.111-18.43-3.54
	c-1.279,3.102,0.396,6.618,2.789,8.701c6.391,5.63,10.014-3.834,7.774-4.272c-0.533-0.105-1.022,0.082-1.086,0.414
	c-0.169,0.884-3.826,0.011-4.017-0.956c-0.776-3.848,3.536-6.041,6.539-3.314c3.065,2.799,1.005,14.932-11.117,12.005
	c-14.433-3.503-15.697-21.297-1.944-26.853c11.055-4.361,34.785,0.389,28.249,34.328c-1.754,9.109-2.214,9.368-4.502,9.521
	c-5.575,0.406-8.73,12.001-3.982,15.195c1.659,1.124,1.735,1.277,0.728,6.926c-2.872,15.221-0.024-0.758-15.937-8.185
	c-32.376-15.16-45.009,27.484-17.762,33.471c20.136,4.442,21.084-19.808,7.847-21.047c-4.117-0.387-7.819,1.85-9.158,6.406
	c-1.45,5.091-0.745,6.837,3.117,7.711c3.25,0.737,4.291-0.758,2.502-3.573c-1.37-2.153-0.721-3.444-0.018-5.822
	c7.35,2.477,7.2,2.063,7.117,4.717c-0.179,5.67-4.751,7.96-9.495,7.335c-12.167-1.584-13.608-16.339-7.574-22.702
	c8.945-9.432,42.508-6.311,29.809,36.804c-2.855,9.453-9.155,29.647-16.572,36.323c-13.602,12.599-32.68,3.196-34.223-8.489
	c-1.153-8.694,8.692-19.786,19.465-13.923c4.207,2.282,6.561,6.821,3.376,11.515c-1.501,2.206-1.141,1.945-8.533-0.365
	c0.81-2.141,0.934-3.711,3.438-4.7c3.101-1.228,3.137-3.048,0.073-4.361c-6.499-2.788-8.637,6.721-7.131,10.662
	c2.09,5.434,9.973,8.075,15.554,2.693c14.227-14.298-15.956-32.411-28.62-13.938c-10.987,16.058,6.382,34.067,26.347,31.854
	c9.327-1.063,14.503-9.591,8.879,2.321c-2.517,5.158-2.656,5.242-4.662,5.176c-2.847-0.1-5.353,2.659-6.598,5.89
	c-2.858,7.421,1.827,8.743,2.168,10.512c0.22,1.221-7.143,21.518-17.952,27.106c-19.179,9.686-39.359-11.36-27.187-25.068
	c8.44-9.383,27.877-1.206,22.167,9.471c-1.932,3.666-1.96,3.694-3.98,3.923c-4.029,0.444-6.236-3.866-3.353-6.527
	c0.721-0.671,4.193,0.77,3.812,1.586c-0.467,1,2.219,2.842,2.664-2.727c0.505-6.503-11.62-5.405-13.175,1.081
	c-3.214,13.414,20.663,15.819,20.507-0.474c-0.255-8.993-10.369-17.708-22.297-16.426c-8.391,0.976-16.203,10.002-15.921,18.933
	l-0.011,0.014c0.251,16.776,21.041,29.776,37.029,21.126c4.729-2.557,4.793-2.346,1.248,4.789
	c-3.542,7.045-11.016,14.156-17.604,12.427c-3.445-0.899-5.643,2.137-3.495,4.839c0.609,0.766,1.255,2.999,1.421,4.965
	c0.416,5.933,3.77,7.536-0.898,6.715c-4.376-0.766-8.255,3.051-9.586,7.724c-3.382,11.104,6.21,4.909-1.854,19.932
	c-17.282,30.41-72.607,108.951-83.592,106.794c-7.476-1.485-15.975,7.129-12.615,13.488c2.21,4.174-0.325,1.485-6.12,2.915
	c-1.885,0.482-4.236,0.53-5.145,0.194c-3.234-1.212-5.449,1.811-3.533,4.811c3.104,4.814,0.4,14.059-6.397,20.578
	c-5.7,5.566-5.921,5.57-4.943,0.287c3.31-17.863-15.463-33.638-31.521-28.709l-0.01,0.015c-5.99,1.829-11.28,7.348-12.957,14.586
	c-3.992,17.209,21.128,32.107,29.309,16.608c4.636-8.77-4.898-18.544-12.818-13.708c-5.7,3.475-2.999,15.352,3.032,12.862
	c2.629-1.089,3.692-2.215,2.897-3.069c-0.37-0.399-0.875-0.536-1.123-0.305c-0.659,0.614-3.102-2.244-2.685-3.136
	c1.645-3.562,6.428-2.792,7.247,1.177c0.825,4.053-8.009,12.663-16.054,3.173c-3.835-4.507-5.312-11.239-2.303-16.34
	c9.269-15.746,35.456-3.263,32.239,18.124c-1.876,11.564-18.766,25.251-20.244,25.442c-1.804,0.222-4.479-3.835-10.665,1.19
	c-2.689,2.182-4.54,5.418-3.564,8.094c0.684,1.888,0.644,2.044-3.481,6.034c-9.591,9.04-3.079,1.478-4.954-7.726
	c-4.046-19.518-26.257-30.657-38.452-15.191c-13.64,17.772,12.909,40.857,22.117,22.901c3.391-6.973-1.558-13.653-7.374-13.957
	c-4.283-0.206-12.582,4.79-7.935,10.085c2.197,2.506,3.917,1.907,4.124-1.424c0.157-2.551,1.445-3.217,3.409-4.724
	c4.491,6.323,4.611,5.898,2.985,7.998c-6.996,9.027-19.987-3.448-14.894-13.784c13.189-26.241,58.431,12.312,5.839,43.223
	c-43.718,39.04-65.802-9.821-43.277-17.865c15.065-5.481,23.612,13.396,12.489,17.44c-2.51,0.907-2.099,0.859-6.71-5.326
	c2.122-1.396,3.093-2.4,5.556-1.77c3.23,0.823,4.326-0.632,2.618-3.494c-2.029-3.4-3.907-3.526-8.294-0.56
	c-4.08,2.709-4.824,7.071-3.259,10.682c3.697,8.529,16.488,7.086,19.539-1.292c3.645-10.095-8.387-26.74-23.991-21.149
	c-23.402,8.376-9.242,42.153,10.214,43.77c5.205,0.454,5.078,0.817-1.756,4.58c-5.094,2.653-5.23,2.682-6.823,1.439
	c-4.496-3.497-14.544,3.095-13.212,8.496c0.198,0.775,0.197,1.758-0.001,2.184c-0.624,1.347-18.995,13.316-30.439,11.422
	c-21.276-3.5-25.177-32.249-7.312-36.245c9.069-2.01,17.694,7.521,16.805,14.75c-0.644,5.143-7.124,8.355-9.927,6.775
	c-3.521-1.998-2.784-6.79,1.107-7.263c0.976-0.123,2.943,3.08,2.157,3.52c-1,0.559,0.153,3.582,3.753-0.654
	c4.22-4.978-6.243-11.198-11.297-6.837c-7.029,6.058-0.669,18.139,9.094,16.417c17.262-3.035,10.882-31.398-6.776-32.992
	c-6.534-0.663-13.809,2.141-17.867,7.815l-0.017,0.005c-9.617,13.773-0.4,36.499,17.604,38.836c5.324,0.693,5.253,0.901-1.793,4.619
	c-8.287,4.475-17.934,4.159-21.545-0.258c-2.262-2.747-5.818-1.568-5.662,1.884c0.13,2.702-3.576,6.966-3.798,9.403
	c-0.522,5.771-2.855-5.176-12.478-0.527c-3.437,1.616-6.414,4.774-6.882,8.705c-0.525,4.355-1.619,4.94-23.452,14.132
	c-11.62,4.509-107.368,40.01-115.681,31.04c-2.686-2.897-6.96-3.745-10.681-2.988c-10.548,1.877-5.958,12.13-9.792,7.737
	c-1.571-1.798-7.164-3.191-8.593-5.354c-1.902-2.889-5.473-1.763-5.691,1.787c-0.397,6.642-9.493,11.763-17.285,12.865
	c-7.89,1.104-8.071,0.976-4.167-2.697c13.204-12.418,7.313-36.229-8.571-41.779l-0.017,0.006
	c-8.066-2.841-19.317,1.261-22.943,9.333c-6.645,14.67,4.992,31.7,17.796,25.551c8.687-4.128,7.229-17.733-2.286-18.628
	c-6.656-0.59-11.473,10.563-5.129,12.14c5.508,1.362,4.424-1.774,3.424-1.659c-0.895,0.102-1.186-3.645-0.323-4.115
	c3.429-1.887,6.844,1.571,5.166,5.247c-0.846,1.842-0.882,1.859-4.971,2.527c-12.144,1.982-13.474-19.143-2.112-24.007
	c6.735-2.8,13.036-0.646,17.203,4.442c12.01,14.696-1.447,32.891-9.001,33.802c-1,0.121-23.215,7.874-25.453,2.238
	c-2.098-5.262-14.161-4.395-15.682,0.906c-0.559,1.936-0.686,1.993-6.369,2.8c-7.733,1.098-8.051,0.866-4.109-2.609
	c10.051-8.903,11.014-34.528-5.675-41.046c-11.506-4.53-26.203,4.057-24.667,19.366c1.03,10.62,8.943,16.112,17.253,11.716
	c9.109-4.746,6.03-17.934-3.715-17.445c-5.292,0.29-6.739,1.453-6.38,5.397c0.302,3.33,2.045,3.876,4.173,1.259
	c1.631-1.995,3.069-1.793,5.536-1.887c-0.094,7.768,0.253,7.481-2.296,8.257c-8.243,2.475-12.071-6.995-9.151-14.063
	c2.766-6.717,12.23-9.927,18.528-6.857c13.913,6.925,17.227,43.899-34.029,39.468c-51.33,4.437-47.876-32.576-34.029-39.468
	c6.305-3.073,15.764,0.145,18.528,6.857c2.923,7.076-0.917,16.535-9.151,14.063c-2.566-0.781-2.203-0.525-2.296-8.257
	c2.469,0.094,3.905-0.108,5.536,1.887c2.127,2.617,3.871,2.071,4.173-1.259c0.359-3.944-1.088-5.106-6.38-5.397
	c-9.744-0.489-12.823,12.698-3.715,17.445c8.31,4.396,16.223-1.096,17.253-11.716c1.539-15.342-13.198-23.88-24.667-19.366
	c-16.689,6.518-15.725,32.144-5.675,41.046c3.941,3.475,3.624,3.707-4.109,2.609c-5.684-0.808-5.81-0.864-6.369-2.8
	c-1.52-5.298-13.583-6.172-15.682-0.906c-2.151,5.415-26.65-2.383-25.453-2.238c-7.509-0.905-21.058-19.048-9.001-33.802
	c4.166-5.088,10.467-7.242,17.203-4.442c11.362,4.864,10.032,25.989-2.112,24.007c-4.089-0.668-4.125-0.685-4.971-2.527
	c-1.677-3.677,1.737-7.135,5.166-5.247c0.863,0.47,0.572,4.217-0.322,4.115c-1-0.114-2.085,3.022,3.424,1.659
	c6.344-1.577,1.527-12.729-5.129-12.14c-9.514,0.895-10.973,14.5-2.285,18.628c12.838,6.165,24.423-10.919,17.796-25.551
	c-3.634-8.088-14.905-12.163-22.943-9.333l-0.017-0.006c-15.884,5.55-21.775,29.362-8.571,41.779
	c3.904,3.673,3.723,3.801-4.167,2.697c-7.71-1.091-16.885-6.179-17.285-12.865c-0.218-3.55-3.789-4.675-5.691-1.787
	c-1.43,2.165-7.023,3.558-8.593,5.354c-3.815,4.37,0.73-5.865-9.792-7.737c-3.721-0.757-7.995,0.091-10.681,2.988
	c-8.373,9.034-104.177-26.576-115.682-31.04c-21.695-9.134-22.923-9.742-23.452-14.132c-0.468-3.931-3.446-7.089-6.882-8.705
	c-9.647-4.66-11.953,6.33-12.478,0.527c-0.222-2.437-3.927-6.718-3.798-9.403c0.156-3.452-3.399-4.63-5.662-1.884
	c-3.611,4.417-13.259,4.733-21.545,0.258c-7.046-3.718-7.118-3.926-1.794-4.619c18.004-2.337,27.221-25.063,17.604-38.836
	l-0.017-0.005c-4.003-5.596-11.227-8.488-17.867-7.815c-17.709,1.599-23.986,29.967-6.776,32.992
	c9.763,1.723,16.124-10.359,9.094-16.417c-5.054-4.361-15.516,1.858-11.297,6.837c3.6,4.236,4.753,1.213,3.753,0.654
	c-0.786-0.439,1.18-3.643,2.157-3.52c3.892,0.473,4.629,5.265,1.107,7.263c-2.797,1.577-9.281-1.62-9.926-6.775
	c-0.888-7.225,7.732-16.761,16.805-14.75c17.872,3.997,13.965,32.744-7.312,36.245c-11.41,1.888-29.82-10.086-30.439-11.422
	c-0.198-0.426-0.198-1.409-0.001-2.184c1.332-5.401-8.716-11.993-13.212-8.496c-1.593,1.242-1.729,1.214-6.823-1.439
	c-6.834-3.763-6.961-4.126-1.756-4.58c19.663-1.634,33.492-35.438,10.214-43.77c-15.598-5.589-27.638,11.05-23.991,21.149
	c3.056,8.391,15.847,9.81,19.539,1.292c1.565-3.611,0.82-7.974-3.259-10.682c-4.387-2.966-6.265-2.84-8.294,0.56
	c-1.709,2.862-0.612,4.317,2.618,3.494c2.464-0.63,3.435,0.375,5.556,1.77c-4.629,6.209-4.215,6.228-6.71,5.326
	c-11.084-4.029-2.641-22.945,12.489-17.44c22.516,8.041,0.434,56.9-43.277,17.865c-52.689-30.968-7.32-69.405,5.839-43.223
	c5.092,10.332-7.895,22.814-14.894,13.784c-1.636-2.113-1.49-1.697,2.985-7.998c1.965,1.508,3.252,2.174,3.409,4.724
	c0.207,3.33,1.927,3.929,4.124,1.424c4.607-5.251-3.61-10.293-7.935-10.085c-5.816,0.304-10.766,6.984-7.374,13.957
	c9.202,17.945,35.764-5.12,22.117-22.901c-12.214-15.49-34.413-4.29-38.452,15.191c-1.874,9.203,4.633,16.762-4.954,7.726
	c-4.125-3.99-4.165-4.146-3.481-6.034c0.976-2.676-0.875-5.912-3.564-8.094c-6.188-5.026-8.863-0.968-10.665-1.19
	c-1.278-0.165-18.316-13.556-20.244-25.442c-3.213-21.36,22.962-33.884,32.239-18.124c3.007,5.098,1.535,11.83-2.303,16.34
	c-7.896,9.315-16.914,1.052-16.054-3.173c0.819-3.969,5.602-4.739,7.247-1.177c0.417,0.892-2.026,3.75-2.685,3.136
	c-0.248-0.231-0.753-0.094-1.123,0.305c-0.794,0.855,0.269,1.98,2.898,3.069c6.03,2.49,8.731-9.387,3.032-12.862
	c-7.92-4.835-17.454,4.938-12.818,13.708c8.177,15.492,33.307,0.627,29.309-16.608c-1.674-7.222-6.953-12.752-12.957-14.586
	l-0.01-0.015c-16.058-4.929-34.831,10.846-31.521,28.709c0.977,5.283,0.757,5.279-4.943-0.287
	c-6.797-6.519-9.501-15.763-6.397-20.578c1.916-3-0.299-6.023-3.533-4.811c-0.909,0.336-3.26,0.289-5.145-0.194
	c-5.784-1.427-8.337,1.271-6.12-2.915c3.358-6.356-5.13-14.975-12.616-13.488c-11.255,2.211-67.084-77.743-83.592-106.794
	c-8.068-15.028,1.529-8.826-1.854-19.932c-1.321-4.636-5.183-8.494-9.586-7.724c-4.662,0.82-1.314-0.784-0.898-6.715
	c0.166-1.965,0.812-4.199,1.421-4.965c2.148-2.702-0.05-5.738-3.495-4.839c-6.736,1.768-14.185-5.626-17.604-12.427
	c-3.545-7.134-3.481-7.345,1.248-4.789c15.988,8.649,36.778-4.35,37.029-21.126l-0.011-0.014c0.282-8.93-7.53-17.956-15.921-18.933
	c-11.946-1.284-22.042,7.446-22.297,16.426c-0.156,16.303,23.719,13.879,20.507,0.474c-1.555-6.486-13.68-7.584-13.175-1.081
	c0.445,5.568,3.132,3.727,2.664,2.727c-0.381-0.816,3.091-2.257,3.812-1.586c2.883,2.661,0.677,6.971-3.353,6.527
	c-2.02-0.228-2.048-0.257-3.98-3.923c-5.712-10.678,13.728-18.852,22.167-9.471c12.216,13.757-8.061,34.727-27.187,25.068
	c-10.408-5.38-18.217-25.635-17.952-27.106c0.343-1.777,5.029-3.085,2.168-10.512c-1.244-3.231-3.75-5.991-6.598-5.89
	c-2.006,0.066-2.145-0.018-4.662-5.176c-5.627-11.917-0.453-3.384,8.879-2.321c20.072,2.225,37.282-15.87,26.347-31.854
	c-12.663-18.472-42.846-0.359-28.621,13.938c5.581,5.382,13.464,2.741,15.554-2.693c1.512-3.956-0.64-13.447-7.131-10.662
	c-3.063,1.313-3.027,3.134,0.073,4.361c2.504,0.99,2.629,2.562,3.437,4.7c-7.413,2.317-7.04,2.561-8.533,0.365
	c-3.185-4.694-0.831-9.233,3.376-11.515c10.78-5.867,20.617,5.243,19.465,13.923c-1.543,11.685-20.621,21.088-34.223,8.489
	c-7.39-6.651-13.699-26.812-16.572-36.323c-12.607-42.799,20.727-46.38,29.809-36.804c6.017,6.346,4.616,21.115-7.574,22.702
	c-4.745,0.625-9.316-1.665-9.495-7.335c-0.083-2.669-0.211-2.247,7.117-4.717c0.705,2.384,1.35,3.672-0.018,5.822
	c-1.788,2.815-0.748,4.31,2.502,3.573c3.861-0.874,4.567-2.62,3.117-7.711c-1.326-4.513-4.997-6.797-9.158-6.406
	c-13.248,1.241-12.271,25.485,7.847,21.047c27.229-5.983,14.668-48.656-17.762-33.471c-15.928,7.433-13.062,23.424-15.936,8.185
	c-1.007-5.649-0.931-5.802,0.728-6.926c4.748-3.194,1.593-14.789-3.982-15.195c-2.289-0.153-2.747-0.408-4.502-9.521
	c-6.496-33.734,17.099-38.727,28.249-34.328c13.768,5.562,12.476,23.353-1.944,26.853c-11.902,2.873-14.309-9.091-11.117-12.005
	c3.003-2.727,7.316-0.535,6.539,3.314c-0.191,0.967-3.847,1.84-4.017,0.956c-0.064-0.333-0.552-0.519-1.086-0.414
	c-2.211,0.432,1.34,9.94,7.774,4.272c2.393-2.082,4.068-5.598,2.789-8.701c-3.532-8.57-16.993-6.282-18.43,3.54
	c-0.996,6.935,3.286,11.978,9.768,13.899c19.183,5.709,32.21-16.053,21.797-29.487l0-0.018
	c-10.052-13.431-34.485-11.742-42.386,4.657c-1.18,2.423-1.774,3.601-2.282,3.192c-1.605-1.243-5.035-22.666,5.415-26.734
	c3.319-1.297,3.327-5.047,0.006-5.972c-2.501-0.695-5.647-5.557-7.828-6.524c-5.306-2.294,5.809-1.103,4.457-11.707
	c-0.49-3.767-2.673-7.568-6.2-9.24c-2.031-0.951-3.039-1.389-3.976-6.237c-4.575-24.893-6.288-135.283,3.976-140.087
	c3.527-1.672,5.711-5.473,6.2-9.24c1.361-10.668-9.833-9.382-4.457-11.707c2.188-0.969,5.327-5.829,7.828-6.524
	c3.321-0.926,3.313-4.675-0.006-5.972c-10.383-4.042-7.062-25.459-5.415-26.734c0.508-0.409,1.102,0.769,2.282,3.192
	c7.902,16.399,32.335,18.087,42.386,4.657l0-0.018c2.743-3.539,3.867-8.264,3.501-12.838c-2.145-23.66-37.803-21.815-35.066-2.75
	c1.438,9.822,14.898,12.111,18.43,3.54c1.279-3.102-0.396-6.618-2.789-8.701c-6.391-5.63-10.014,3.834-7.774,4.272
	c0.533,0.105,1.022-0.082,1.086-0.414c0.169-0.884,3.826-0.011,4.017,0.956c0.777,3.848-3.536,6.041-6.539,3.314
	c-3.063-2.796-1.01-14.933,11.117-12.005c14.433,3.503,15.697,21.297,1.944,26.853c-11.055,4.361-34.784-0.389-28.249-34.328
	c1.754-9.11,2.214-9.368,4.502-9.521c5.575-0.406,8.73-12.001,3.982-15.195c-1.659-1.124-1.735-1.277-0.728-6.926
	c2.871-15.22,0.024,0.758,15.936,8.185c32.474,15.205,44.918-27.504,17.762-33.472c-20.135-4.442-21.086,19.808-7.847,21.047
	c4.126,0.388,7.822-1.859,9.158-6.406c1.45-5.091,0.745-6.837-3.117-7.711c-3.25-0.737-4.291,0.758-2.502,3.573
	c1.369,2.153,0.721,3.444,0.018,5.822c-7.35-2.477-7.2-2.063-7.117-4.716c0.179-5.67,4.751-7.96,9.495-7.335
	c12.169,1.585,13.605,16.342,7.574,22.702c-8.11,8.55-29.073,4.953-32.684-13.235c-2.076-9.71,4.679-29.783,7.927-39.13
	c15.076-42.333,44.041-25.164,45.743-12.273c1.153,8.694-8.692,19.786-19.465,13.923c-4.207-2.282-6.561-6.821-3.376-11.515
	c1.501-2.207,1.141-1.945,8.533,0.365c-0.812,2.148-0.934,3.711-3.437,4.7c-3.101,1.228-3.137,3.048-0.073,4.362
	c6.548,2.809,8.596-6.827,7.131-10.662c-2.09-5.434-9.972-8.075-15.554-2.693c-15.984,16.064,23.11,35.129,31.193,8.595
	c4.756-15.559-12.427-28.339-28.919-26.511c-9.327,1.063-14.503,9.591-8.879-2.321c2.517-5.157,2.656-5.242,4.662-5.176
	c5.74,0.203,9.957-11.096,5.708-14.634c-0.614-0.511-1.189-1.307-1.278-1.768c-0.222-1.233,7.164-21.53,17.952-27.106
	c19.175-9.685,39.361,11.358,27.187,25.068c-8.441,9.384-27.878,1.205-22.167-9.47c1.932-3.666,1.96-3.694,3.98-3.923
	c4.029-0.445,6.236,3.866,3.353,6.527c-0.721,0.671-4.193-0.77-3.812-1.586c0.467-1-2.219-2.842-2.664,2.727
	c-0.505,6.503,11.62,5.405,13.175-1.081c3.214-13.414-20.663-15.82-20.507,0.474c0.255,8.991,10.367,17.708,22.297,16.426
	c8.391-0.977,16.203-10.002,15.921-18.933l0.011-0.014c-0.251-16.776-21.041-29.775-37.029-21.126
	c-4.729,2.557-4.793,2.346-1.248-4.789c3.543-7.048,11.018-14.155,17.604-12.427c3.445,0.899,5.643-2.137,3.495-4.839
	c-0.609-0.766-1.255-2.999-1.421-4.965c-0.416-5.933-3.77-7.536,0.898-6.715c7.099,1.242,12.656-9.475,8.949-16.154
	c-5.755-10.376,75.177-120.438,86.084-118.296c7.486,1.487,15.972-7.135,12.616-13.488c-2.216-4.185,0.349-1.491,6.12-2.915
	c1.885-0.482,4.236-0.53,5.145-0.194c3.234,1.212,5.449-1.811,3.533-4.811c-3.105-4.815-0.4-14.059,6.397-20.578
	c5.7-5.566,5.921-5.57,4.943-0.287c-3.31,17.863,15.463,33.638,31.521,28.709l0.01-0.015c16.888-5.157,18.261-30.134-0.275-36.69
	c-6.549-2.319-12.902-0.518-16.076,5.497c-4.636,8.77,4.898,18.544,12.818,13.708c5.7-3.475,2.998-15.352-3.032-12.862
	c-2.629,1.089-3.692,2.214-2.898,3.069c0.37,0.399,0.875,0.536,1.123,0.305c0.659-0.614,3.102,2.244,2.685,3.136
	c-1.645,3.562-6.428,2.792-7.247-1.177c-0.824-4.049,8.009-12.663,16.054-3.173c9.789,11.506-0.257,26.52-14.224,22.881
	c-8.834-2.298-17.666-11.682-15.713-24.665c1.907-11.751,18.923-25.271,20.244-25.442c0.466-0.058,1.401,0.244,2.077,0.67
	c4.684,2.949,14.117-4.565,12.152-9.955c-0.684-1.888-0.644-2.044,3.481-6.034c9.59-9.039,3.079-1.478,4.954,7.726
	c4.037,19.47,26.234,30.686,38.452,15.191c13.644-17.778-12.913-40.851-22.117-22.901c-3.391,6.973,1.558,13.653,7.374,13.957
	c4.283,0.206,12.582-4.79,7.935-10.085c-2.197-2.506-3.917-1.907-4.124,1.424c-0.157,2.551-1.445,3.217-3.409,4.723
	c-4.491-6.323-4.611-5.898-2.985-7.998c6.996-9.027,19.987,3.448,14.894,13.784c-10.679,21.248-38.781,0.424-28.782-21.236
	c1.382-3.11,5.049-7.32,9.366-11.459c53.167-50.297,71.404-11.844,64.281,1.362c-4.117,7.627-18.645,10.953-23.937-0.147
	c-2.066-4.318-1.31-9.38,4.021-11.318c2.51-0.907,2.099-0.859,6.71,5.326c-2.122,1.395-3.092,2.4-5.556,1.77
	c-3.23-0.823-4.326,0.632-2.618,3.494c2.029,3.4,3.907,3.526,8.294,0.56c4.08-2.709,4.824-7.071,3.259-10.682
	c-3.697-8.529-16.488-7.087-19.539,1.292c-3.645,10.094,8.387,26.74,23.991,21.149c23.377-8.367,9.288-42.149-10.214-43.77
	c-5.205-0.454-5.078-0.817,1.756-4.58c5.094-2.653,5.23-2.682,6.823-1.439c4.496,3.497,14.544-3.095,13.212-8.496
	c-1.097-4.302,19.827-15.362,30.44-13.606c21.302,3.504,25.164,32.252,7.312,36.245c-9.073,2.011-17.694-7.525-16.805-14.75
	c0.644-5.142,7.124-8.355,9.926-6.775c3.522,1.998,2.784,6.791-1.107,7.263c-0.977,0.123-2.943-3.08-2.157-3.52
	c1-0.559-0.155-3.581-3.753,0.654c-4.22,4.978,6.243,11.197,11.297,6.836c7.029-6.058,0.669-18.139-9.094-16.417
	c-22.265,3.915-4.709,45.783,19.798,29.79c1.898-1.249,3.559-2.815,4.845-4.613l0.017-0.005c9.617-13.773,0.4-36.499-17.604-38.836
	c-5.324-0.692-5.253-0.901,1.794-4.619c8.287-4.475,17.934-4.159,21.545,0.258c2.263,2.747,5.818,1.568,5.662-1.883
	c-0.13-2.705,3.576-6.963,3.798-9.403c0.522-5.771,2.855,5.176,12.478,0.527c3.437-1.616,6.414-4.774,6.882-8.705
	c1.473-12.228,99.908-39.686,111.851-42.839c22.813-5.311,24.241-5.614,27.282-2.333c2.686,2.897,6.96,3.745,10.681,2.988
	c10.548-1.877,5.958-12.13,9.792-7.737c1.572,1.799,7.164,3.191,8.593,5.354c1.902,2.889,5.473,1.763,5.691-1.787
	c0.397-6.64,9.489-11.762,17.285-12.865c7.89-1.104,8.071-0.976,4.167,2.697c-13.204,12.418-7.313,36.229,8.571,41.78l0.017-0.006
	c2.103,0.74,4.356,0.947,6.626,0.841c28.943-1.307,19.209-45.66-1.478-35.725c-8.687,4.128-7.23,17.733,2.285,18.628
	c6.657,0.59,11.473-10.563,5.129-12.14c-5.508-1.362-4.424,1.774-3.424,1.659c0.895-0.102,1.186,3.645,0.322,4.115
	c-3.429,1.887-6.843-1.571-5.166-5.247c0.846-1.842,0.882-1.859,4.971-2.527c12.144-1.982,13.474,19.143,2.112,24.007
	c-21.27,8.843-39.365-35.521,6.799-41.931c9.216-1.07,9.612-0.665,10.452,1.449c2.098,5.262,14.161,4.395,15.682-0.906
	c0.559-1.936,0.686-1.993,6.369-2.8c7.733-1.098,8.051-0.866,4.109,2.609c-10.052,8.903-11.013,34.528,5.675,41.046
	c5.306,2.089,11.651,1.586,17.155-2.228c14.977-10.317,5.981-37.171-9.741-28.853c-9.109,4.746-6.03,17.933,3.715,17.444
	c5.292-0.29,6.739-1.453,6.38-5.397c-0.302-3.33-2.045-3.876-4.173-1.259c-1.632,1.997-3.074,1.793-5.536,1.887
	c0.094-7.768-0.253-7.481,2.296-8.257c8.244-2.475,12.07,6.996,9.151,14.063c-2.766,6.717-12.23,9.927-18.528,6.857
	c-11.097-5.523-13.211-26.503,2.538-35.126c11.685-6.301,51.204-6.351,62.983,0c15.746,8.621,13.637,29.602,2.538,35.126
	c-6.323,3.082-15.77-0.159-18.528-6.857c-2.919-7.067,0.906-16.538,9.151-14.063c2.566,0.781,2.203,0.525,2.296,8.257
	c-2.47-0.094-3.906,0.108-5.536-1.887c-2.127-2.617-3.871-2.071-4.173,1.259c-0.359,3.944,1.088,5.106,6.38,5.397
	c9.744,0.489,12.823-12.698,3.715-17.444c-15.724-8.32-24.715,18.538-9.741,28.853c5.492,3.807,11.836,4.322,17.155,2.228
	c16.689-6.518,15.725-32.144,5.675-41.046c-3.941-3.475-3.624-3.707,4.109-2.609c5.684,0.808,5.81,0.864,6.369,2.8
	c1.52,5.297,13.582,6.172,15.682,0.906c0.839-2.112,1.223-2.521,10.452-1.449c46.121,6.404,28.095,50.785,6.799,41.931
	c-11.362-4.864-10.032-25.989,2.112-24.007c4.089,0.668,4.125,0.685,4.971,2.527c1.677,3.677-1.737,7.135-5.166,5.247
	c-0.863-0.47-0.572-4.217,0.323-4.115c1,0.114,2.085-3.022-3.424-1.659c-6.344,1.577-1.527,12.73,5.129,12.14
	c9.515-0.895,10.973-14.5,2.286-18.628c-20.735-9.958-30.332,34.422-1.478,35.725c2.27,0.106,4.523-0.1,6.626-0.841l0.017,0.006
	c15.884-5.55,21.775-29.362,8.571-41.78c-3.904-3.673-3.723-3.801,4.167-2.697c7.708,1.091,16.885,6.179,17.285,12.865
	c0.218,3.55,3.789,4.676,5.691,1.787c1.43-2.165,7.023-3.558,8.593-5.354c3.815-4.37-0.73,5.865,9.792,7.737
	c3.721,0.757,7.995-0.091,10.681-2.988c8.008-8.64,137.791,34.025,139.133,45.172c0.468,3.931,3.446,7.089,6.882,8.705
	c9.646,4.66,11.953-6.33,12.478-0.527c0.222,2.437,3.928,6.71,3.798,9.403c-0.156,3.452,3.399,4.63,5.662,1.883
	c3.611-4.417,13.259-4.733,21.545-0.258c7.046,3.718,7.118,3.927,1.793,4.619c-18.004,2.337-27.221,25.063-17.604,38.836
	l0.017,0.005c10.691,14.946,34.298,7.431,34.823-11.579c0.196-7.583-4.047-12.519-10.18-13.598
	c-9.763-1.723-16.124,10.359-9.094,16.417c5.054,4.361,15.516-1.858,11.297-6.836c-3.6-4.236-4.753-1.213-3.753-0.654
	c0.786,0.439-1.18,3.643-2.157,3.52c-3.892-0.473-4.629-5.265-1.107-7.263c2.797-1.577,9.281,1.62,9.927,6.775
	c0.888,7.225-7.732,16.761-16.805,14.75c-22.58-5.05-10.254-50.401,27.245-31.465c11.436,5.983,11.029,6.779,10.507,8.826
	c-1.332,5.401,8.716,11.993,13.212,8.496c1.593-1.242,1.729-1.214,6.823,1.439c6.834,3.763,6.961,4.126,1.756,4.58
	c-19.651,1.633-33.505,35.433-10.214,43.77c15.598,5.589,27.637-11.05,23.991-21.149c-3.055-8.391-15.847-9.811-19.539-1.292
	c-1.564,3.611-0.82,7.974,3.259,10.682c4.387,2.966,6.265,2.84,8.294-0.56c1.709-2.862,0.612-4.317-2.618-3.494
	c-2.464,0.63-3.435-0.375-5.556-1.77c4.629-6.209,4.215-6.228,6.71-5.326c5.331,1.938,6.087,6.999,4.021,11.318
	c-5.343,11.208-19.893,7.64-23.937,0.147c-6.113-11.334,6.536-37.821,36.51-21.57c9.315,5.053,32.641,21.552,37.137,31.667
	c10.011,21.685-18.119,42.452-28.782,21.236c-5.092-10.332,7.895-22.815,14.894-13.784c1.636,2.113,1.49,1.696-2.985,7.998
	c-1.965-1.508-3.252-2.174-3.409-4.723c-0.207-3.33-1.927-3.929-4.124-1.424c-4.607,5.251,3.61,10.293,7.935,10.085
	c5.816-0.304,10.766-6.984,7.374-13.957c-9.202-17.945-35.764,5.12-22.117,22.901c12.193,15.464,34.402,4.343,38.452-15.191
	c1.875-9.203-4.633-16.762,4.954-7.726c4.125,3.991,4.164,4.146,3.481,6.034c-1.965,5.389,7.468,12.904,12.152,9.955
	c0.676-0.426,1.611-0.727,2.077-0.67c1.276,0.165,18.316,13.556,20.244,25.442c1.979,13.157-7.064,22.416-15.713,24.665
	c-13.964,3.639-24.019-11.367-14.224-22.881c7.896-9.315,16.913-1.052,16.054,3.173c-0.819,3.969-5.602,4.739-7.247,1.177
	c-0.417-0.892,2.026-3.75,2.685-3.136c0.248,0.231,0.753,0.094,1.123-0.305c0.794-0.855-0.269-1.98-2.897-3.069
	c-6.03-2.49-8.731,9.387-3.032,12.862c7.92,4.835,17.454-4.938,12.818-13.708c-3.175-6.014-9.527-7.816-16.077-5.497
	c-18.565,6.567-17.126,31.545-0.275,36.69l0.01,0.015c16.058,4.929,34.831-10.846,31.521-28.709
	c-0.978-5.283-0.757-5.279,4.943,0.287c6.797,6.519,9.501,15.763,6.397,20.578c-1.916,3,0.299,6.023,3.533,4.811
	c0.909-0.336,3.26-0.289,5.145,0.194c5.784,1.427,8.337-1.271,6.12,2.915c-3.355,6.35,5.121,14.977,12.615,13.488
	c11.011-2.163,91.732,108.112,86.084,118.296c-3.709,6.684,1.855,17.395,8.949,16.154c4.662-0.82,1.314,0.784,0.898,6.715
	c-0.166,1.965-0.812,4.199-1.421,4.965c-2.148,2.702,0.05,5.738,3.495,4.839c6.736-1.768,14.185,5.626,17.604,12.427
	c3.545,7.134,3.481,7.345-1.248,4.789c-15.988-8.649-36.778,4.35-37.029,21.126l0.011,0.014c-0.282,8.93,7.53,17.956,15.921,18.933
	c11.95,1.284,22.042-7.45,22.297-16.426c0.156-16.303-23.719-13.879-20.507-0.474c1.555,6.486,13.68,7.584,13.175,1.081
	c-0.445-5.569-3.131-3.727-2.664-2.727c0.381,0.816-3.091,2.257-3.812,1.586c-2.883-2.661-0.677-6.971,3.353-6.527
	c2.02,0.228,2.048,0.257,3.98,3.923c5.71,10.675-13.725,18.855-22.167,9.47c-12.216-13.757,8.062-34.727,27.187-25.068
	c10.407,5.38,18.217,25.636,17.952,27.106c-0.089,0.461-0.664,1.257-1.278,1.768c-4.246,3.535-0.039,14.837,5.708,14.634
	c2.006-0.066,2.145,0.018,4.662,5.176c5.627,11.918,0.453,3.385-8.879,2.321c-16.613-1.841-33.645,11.051-28.919,26.511
	c8.085,26.538,47.168,7.461,31.193-8.595c-5.581-5.382-13.464-2.741-15.554,2.693c-1.563,4.091,0.707,13.418,7.131,10.662
	c3.063-1.313,3.027-3.134-0.073-4.362c-2.502-0.989-2.628-2.559-3.438-4.7c7.413-2.316,7.04-2.561,8.533-0.365
	c3.185,4.694,0.831,9.233-3.376,11.515c-10.79,5.872-20.615-5.253-19.465-13.923c1.702-12.886,30.659-30.084,45.743,12.273
	c3.268,9.404,10,29.435,7.927,39.13c-3.611,18.187-24.574,21.785-32.684,13.235c-6.017-6.346-4.616-21.115,7.574-22.702
	c4.745-0.625,9.316,1.665,9.495,7.335c0.083,2.669,0.211,2.247-7.117,4.716c-0.705-2.384-1.35-3.672,0.018-5.822
	c1.788-2.815,0.748-4.31-2.502-3.573c-3.861,0.874-4.567,2.62-3.117,7.711c1.326,4.513,4.997,6.797,9.158,6.406
	c13.248-1.24,12.271-25.485-7.847-21.047c-27.096,5.954-14.794,48.715,17.762,33.472c15.928-7.434,13.062-23.424,15.937-8.185
	c1.007,5.649,0.931,5.802-0.728,6.926c-4.748,3.194-1.593,14.789,3.982,15.195c2.29,0.153,2.748,0.408,4.502,9.521
	c6.496,33.733-17.099,38.727-28.249,34.328c-13.768-5.562-12.476-23.353,1.944-26.853c11.901-2.873,14.309,9.091,11.117,12.005
	c-3.004,2.727-7.316,0.534-6.539-3.314c0.191-0.967,3.847-1.84,4.017-0.956c0.064,0.333,0.552,0.519,1.086,0.414
	c2.213-0.433-1.34-9.94-7.774-4.272c-2.393,2.082-4.068,5.598-2.789,8.701c3.532,8.57,16.993,6.282,18.43-3.54
	c2.734-19.044-32.919-20.931-35.066,2.75c-0.365,4.574,0.758,9.299,3.501,12.838l0,0.018c10.052,13.431,34.485,11.742,42.386-4.657
	c1.18-2.423,1.774-3.601,2.282-3.192c1.604,1.242,5.044,22.662-5.416,26.734c-3.319,1.297-3.327,5.047-0.006,5.972
	c2.501,0.695,5.647,5.558,7.828,6.524c5.306,2.294-5.81,1.103-4.457,11.707c0.49,3.767,2.673,7.568,6.2,9.24
	c3.383,1.584,4.234,1.718,6.081,26.688c1.224,18.429,4.615,114.629-6.081,119.635c-3.527,1.672-5.711,5.473-6.2,9.24
	c-1.361,10.668,9.833,9.382,4.457,11.707c-2.188,0.969-5.327,5.829-7.828,6.524c-3.321,0.926-3.313,4.675,0.006,5.972
	C1565.993,944.807,1562.671,966.224,1561.025,967.499z M1563.476,941.422l0,0.003c-3.582-4.358-0.195-10.134,5.476-9.418
	c5.668,0.716,7.322,7.344,2.677,10.585C1564.331,947.673,1569.049,948.216,1563.476,941.422z"/>
</svg>
