<?xml version="1.0" encoding="UTF-8" standalone="no"?> <svg xmlns="http://www.w3.org/2000/svg" xmlns:xlink="http://www.w3.org/1999/xlink" viewBox="0 0 64 64"><defs><style>.cls-1{fill:url(#linear-gradient);}</style><linearGradient id="linear-gradient" x1="3" y1="32" x2="61" y2="32" gradientUnits="userSpaceOnUse"><stop offset="0" stop-color="#957178"/><stop offset="0.23" stop-color="#c49da5"/><stop offset="0.72" stop-color="#d1b3a9"/><stop offset="1" stop-color="#b89084"/></linearGradient></defs><g id="Layer_3" data-name="Layer 3"><path class="cls-1" d="M55.33,49.33a5.61,5.61,0,0,1-4-1.66L32,28.35,12.67,47.67a5.66,5.66,0,1,1-8-8L28,16.33a5.68,5.68,0,0,1,8,0L59.34,39.66a5.67,5.67,0,0,1-4,9.67ZM32,25.93a1,1,0,0,1,.71.3l20,20a3.68,3.68,0,0,0,5.19,0A3.64,3.64,0,0,0,59,43.67a3.68,3.68,0,0,0-1.07-2.6L34.59,17.74a3.66,3.66,0,0,0-5.18,0L6.07,41.07a3.67,3.67,0,0,0,5.19,5.19l20-20A1,1,0,0,1,32,25.93Z"/></g></svg>